<?xml version="1.0" standalone="no"?>
<!DOCTYPE svg PUBLIC "-//W3C//DTD SVG 20010904//EN"
 "http://www.w3.org/TR/2001/REC-SVG-20010904/DTD/svg10.dtd">
<svg version="1.0" xmlns="http://www.w3.org/2000/svg"
 width="1600.000000pt" height="1600.000000pt" viewBox="0 0 1600.000000 1600.000000"
 preserveAspectRatio="xMidYMid meet">
<metadata>
Created by potrace 1.14, written by Peter Selinger 2001-2017
</metadata>
<g transform="translate(0.000000,1600.000000) scale(0.100000,-0.100000)"
fill="#000000" stroke="none">
<path d="M4258 11665 c-2 -2 -32 -5 -68 -8 -231 -19 -499 -128 -678 -275 l-57
-47 -925 -1 c-850 -1 -967 -3 -1055 -19 -48 -9 -137 -35 -170 -50 -16 -7 -48
-20 -69 -29 -66 -28 -199 -121 -269 -191 -72 -71 -137 -158 -186 -246 -35 -64
-86 -213 -97 -279 -3 -25 -8 -56 -10 -70 -2 -14 -4 -71 -4 -126 -1 -261 106
-513 295 -700 129 -127 280 -212 463 -261 l97 -26 962 -2 962 -2 73 -55 c116
-88 189 -130 335 -190 33 -13 27 -11 118 -38 39 -11 88 -23 110 -26 22 -3 60
-10 84 -14 73 -13 328 -5 416 14 218 46 466 162 585 273 l35 33 350 1 c193 0
1522 1 2955 2 l2605 2 45 -36 c80 -64 151 -110 242 -155 90 -45 249 -103 303
-111 17 -2 37 -6 45 -9 78 -27 403 -24 520 4 19 5 40 10 45 10 127 21 368 137
501 242 l63 49 798 4 798 4 97 26 c274 72 501 245 634 483 42 74 99 228 109
294 4 25 9 56 11 70 5 34 5 220 0 246 -2 12 -7 37 -10 55 -9 56 -15 80 -27
118 -118 372 -454 653 -834 697 -33 4 -400 7 -816 8 l-756 2 -79 59 c-89 67
-126 90 -234 141 -84 40 -235 92 -290 100 -19 3 -42 7 -50 10 -48 17 -282 24
-395 11 -90 -10 -239 -50 -340 -92 -79 -32 -241 -118 -255 -134 -3 -3 -32 -27
-65 -52 l-60 -46 -2951 1 -2951 1 -44 36 c-182 149 -431 255 -669 285 -53 6
-237 13 -242 9z"/>
<path d="M668 6988 c-2 -7 -3 -607 -3 -1333 l1 -1320 331 -1 c294 0 332 1 335
15 2 9 3 458 3 999 -1 681 2 982 9 983 6 0 381 2 834 2 l822 2 0 -667 0 -668
333 0 333 0 0 665 c-1 366 1 665 4 666 27 5 1645 2 1653 -3 8 -5 11 -293 11
-1000 l0 -994 333 0 333 0 0 997 c0 789 3 998 13 1001 10 3 1608 2 1643 -1 7
-1 10 -203 10 -666 l-1 -665 335 0 335 0 -1 660 c0 362 2 663 5 667 3 4 378 8
834 8 l827 0 0 -1000 0 -1001 333 1 332 0 2 980 c0 539 2 989 2 1000 1 20 7
20 823 18 453 0 828 -2 833 -2 7 -1 10 -229 9 -666 l0 -665 333 0 333 0 2 667
3 667 823 0 c453 1 827 -1 831 -4 4 -3 7 -450 7 -993 -1 -544 1 -992 4 -996 3
-4 152 -8 332 -8 322 1 326 1 330 21 2 12 3 611 3 1331 l-1 1310 -7331 3
c-5860 2 -7332 0 -7335 -10z"/>
</g>
</svg>
